<?xml version="1.0" encoding="UTF-8" standalone="no"?>
<!-- Created with Inkscape (http://www.inkscape.org/) -->

<svg
   xmlns:dc="http://purl.org/dc/elements/1.1/"
   xmlns:cc="http://creativecommons.org/ns#"
   xmlns:rdf="http://www.w3.org/1999/02/22-rdf-syntax-ns#"
   xmlns:svg="http://www.w3.org/2000/svg"
   xmlns="http://www.w3.org/2000/svg"
   xmlns:sodipodi="http://sodipodi.sourceforge.net/DTD/sodipodi-0.dtd"
   xmlns:inkscape="http://www.inkscape.org/namespaces/inkscape"
   width="109.62749mm"
   height="109.62749mm"
   viewBox="0 0 109.62749 109.62749"
   version="1.1"
   id="svg8"
   inkscape:version="0.92.2 (5c3e80d, 2017-08-06)"
   sodipodi:docname="ball.svg">
  <defs
     id="defs2" />
  <sodipodi:namedview
     id="base"
     pagecolor="#ffffff"
     bordercolor="#666666"
     borderopacity="1.0"
     inkscape:pageopacity="0.0"
     inkscape:pageshadow="2"
     inkscape:zoom="0.7"
     inkscape:cx="42.622611"
     inkscape:cy="322.47624"
     inkscape:document-units="mm"
     inkscape:current-layer="layer1"
     showgrid="false"
     fit-margin-top="0"
     fit-margin-left="0"
     fit-margin-right="0"
     fit-margin-bottom="0"
     inkscape:window-width="1680"
     inkscape:window-height="997"
     inkscape:window-x="-8"
     inkscape:window-y="-8"
     inkscape:window-maximized="1" />
  <metadata
     id="metadata5">
    <rdf:RDF>
      <cc:Work
         rdf:about="">
        <dc:format>image/svg+xml</dc:format>
        <dc:type
           rdf:resource="http://purl.org/dc/dcmitype/StillImage" />
        <dc:title></dc:title>
      </cc:Work>
    </rdf:RDF>
  </metadata>
  <g
     inkscape:label="Camada 1"
     inkscape:groupmode="layer"
     id="layer1"
     transform="translate(-50.186256,-91.926046)">
    <g
       id="g4628"
       transform="translate(0,-1.7602103)">
      <path
         inkscape:connector-curvature="0"
         id="path4613"
         d="M 152.26177,142.03763 A 44.901283,45.302185 0 0 1 107.36049,187.33982 44.901283,45.302185 0 0 1 62.459206,142.03763 44.901283,45.302185 0 0 1 107.36049,96.735449 44.901283,45.302185 0 0 1 152.26177,142.03763 Z"
         style="opacity:1;vector-effect:none;fill:#ffffff;fill-opacity:1;stroke:none;stroke-width:4.90630198;stroke-linecap:butt;stroke-linejoin:miter;stroke-miterlimit:4;stroke-dasharray:none;stroke-dashoffset:0;stroke-opacity:1" />
      <g
         transform="translate(-14.830917,-53.986669)"
         id="g4591">
        <path
           sodipodi:nodetypes="sssszzzssccscsscsscccccsccscsccsccsccccscccscssccccscsscsccccccccccccc"
           inkscape:connector-curvature="0"
           id="path4609"
           d="M 111.60896,255.06559 C 107.10514,254.4461 97.975867,251.983 94.521731,250.45542 79.552421,243.83528 68.226049,228.46988 65.453026,211.0207 c -1.448405,-9.11404 0.698023,-22.29217 6.665594,-32.89894 4.555449,-8.09686 17.553168,-19.61534 22.822223,-21.9106 5.269057,-2.29527 6.749047,-3.0918 11.493377,-4.53021 4.74434,-1.43841 8.06081,-1.65708 14.43535,-2.156 6.37455,-0.49892 13.65575,0.97463 23.27537,5.91963 7.06242,3.63046 17.52241,12.76104 21.74598,18.98219 3.03825,4.47522 6.05065,11.28785 7.08599,16.02518 1.26424,5.78477 3.22039,15.97282 -0.44122,27.16495 -2.19416,7.76149 -7.06299,16.47147 -11.98045,21.43219 -4.62686,4.66757 -10.44142,8.87935 -14.08657,10.20361 -1.12781,0.40973 -3.93167,1.52896 -6.23079,2.48717 -7.80641,3.2535 -19.37969,4.59793 -28.62892,3.32572 z m 28.09422,-25.62666 c 4.9902,-1.75126 12.57544,-6.28861 12.57544,-7.52239 0,-0.38162 -1.3998,-3.6698 -3.11067,-7.30707 l -3.11067,-6.61322 -14.24872,0.0257 -14.24872,0.0257 -5.36778,7.75978 c -2.95227,4.26788 -5.6045,8.17308 -5.89385,8.67824 -0.75514,1.31839 4.32192,4.11487 10.50544,5.78647 6.93895,1.87582 16.13362,1.5413 22.89953,-0.83312 z m -29.75226,-13.87835 5.86072,-8.51091 -2.94979,-5.87537 c -2.59641,-5.17151 -5.5282,-13.45825 -6.66589,-18.84123 -0.37297,-1.76468 -0.49116,-1.79845 -7.997799,-2.28498 -8.587919,-0.5566 -8.323268,-0.68585 -9.465132,4.62243 -2.617294,12.16721 1.193834,25.3373 10.048156,34.72335 2.447125,2.59407 4.642745,4.70775 4.879165,4.69706 0.23641,-0.0107 3.06717,-3.84935 6.29057,-8.53035 z m 47.72869,1.03457 c 7.21799,-9.13145 9.84158,-21.18795 7.16832,-32.94141 l -1.10118,-4.84149 -4.53789,0.38511 c -6.65094,0.56442 -6.93024,0.75016 -6.93024,4.60878 0,5.30355 -1.35196,13.64241 -2.98825,18.43147 l -1.51801,4.44291 3.07994,6.66435 c 1.69398,3.6654 3.3159,6.66436 3.60429,6.66436 0.28839,0 1.73875,-1.53634 3.22302,-3.41408 z m -43.98823,-43.80457 c 4.0354,-3.03804 8.67803,-6.17518 10.31697,-6.97144 1.63894,-0.79626 2.9718,-1.61714 2.96191,-1.82418 -0.01,-0.20705 -0.58618,-2.52954 -1.28064,-5.16111 -0.82601,-3.13003 -1.63895,-4.85952 -2.35074,-5.00112 -1.84494,-0.36702 -9.4549,1.8388 -14.01954,4.06369 -5.51625,2.68873 -12.674136,9.41482 -16.008504,15.0428 l -2.577073,4.34977 4.285882,0.39467 c 11.272485,1.03803 10.537725,1.23058 18.671735,-4.89308 z m 44.60569,4.44772 c 4.91284,-0.5428 4.8929,-0.4299 1.08822,-6.1619 -5.14444,-7.75042 -13.91152,-13.88852 -23.26814,-16.29073 -5.27014,-1.35304 -10.10034,-1.44739 -9.61701,-0.18784 0.18793,0.48973 0.87172,2.77943 1.51953,5.08823 l 1.17785,4.19781 5.00681,2.37772 c 5.89848,2.80118 12.13114,6.94476 14.98788,9.96421 1.38593,1.46486 2.48171,2.04918 3.41761,1.82243 0.75769,-0.18357 3.31695,-0.54804 5.68725,-0.80993 z M 131.9568,151.89202 c -0.46277,-0.18723 -1.38553,-0.19863 -2.05057,-0.0253 -0.66505,0.1733 -0.28642,0.32649 0.84139,0.34042 1.12782,0.0139 1.67195,-0.12786 1.20918,-0.3151 z"
           style="fill:#edf3f7;stroke-width:0.68352383" />
        <path
           sodipodi:nodetypes="ccssssssscscccsccsccscscccsccsccsssccsscccccssscsccccscccccsssssccsccccsscscccscsccs"
           inkscape:connector-curvature="0"
           id="path4607"
           d="m 116.39362,255.10436 c -3.25892,-0.26022 -13.24548,-2.06141 -17.088092,-3.08205 -3.470805,-0.92187 -10.067751,-4.22871 -13.890891,-6.96306 -4.300497,-3.07576 -11.310771,-12.00532 -14.475205,-18.43824 -4.189055,-8.51587 -5.758655,-15.70489 -5.173321,-23.69465 0.261853,-3.57429 0.450453,-7.22474 0.569449,-8.27544 0.327558,-2.89223 3.747346,-13.19103 6.627828,-18.10582 3.352378,-5.71996 6.674599,-9.83069 13.265591,-14.73465 6.474663,-4.8174 8.0838,-5.21824 3.153591,-0.78556 l -3.577332,3.21633 0.333333,6.37271 c 0.183334,3.50499 0.452628,6.49078 0.598431,6.63509 0.145804,0.14431 4.571297,0.51993 9.83443,0.8347 l 9.569338,0.57232 6.90612,-5.17376 c 3.79837,-2.84557 8.41216,-6.04333 10.25286,-7.10615 1.8407,-1.06281 3.46033,-2.0266 3.59917,-2.14176 0.33491,-0.27777 -1.98336,-9.86238 -2.74481,-11.34812 -0.41371,-0.80723 -1.8662,-1.30664 -4.74868,-1.63276 -5.68833,-0.64356 -3.79591,-1.62549 3.13991,-1.62922 6.29224,-0.003 9.82622,0.84804 9.82622,1.70576 0,0.32675 -0.23126,0.33102 -1.45306,0.33615 -1.22179,0.005 -2.88282,0.18678 -3.69116,0.40365 l -1.46971,0.39431 1.50731,5.57719 1.50732,5.57719 7.04241,3.75938 c 3.87333,2.06766 8.96137,5.33827 11.30676,7.26803 l 4.26433,3.50865 6.25639,-0.35672 c 3.94685,-0.22504 6.2453,-0.63713 6.22638,-1.11632 -0.0165,-0.41778 -0.46403,-1.97816 -0.9945,-3.46752 -0.53046,-1.48937 -0.82137,-2.85105 -0.64646,-3.02596 0.92461,-0.92461 7.20329,9.03062 9.30873,15.80867 1.68853,5.4359 1.54948,6.0447 1.72869,14.53207 0.13379,6.33649 -0.75953,10.16223 -1.77387,13.32872 -1.72917,5.39792 -1.73816,5.98851 -0.0364,2.39233 1.59388,-3.36827 1.68117,-2.45715 0.23207,2.4225 -2.30466,7.76064 -6.78219,15.80931 -11.30701,20.3251 -7.06267,7.04858 -9.95937,8.75285 -22.45513,13.21151 -4.19413,1.49651 -14.25001,3.40555 -17.00675,3.22861 -0.98458,-0.0632 -3.02049,-0.21315 -4.52425,-0.33321 z m 20.65401,-9.19708 c 3.20296,-0.62445 3.92733,-1.12559 7.11664,-4.92347 3.76784,-4.48681 10.16492,-13.89029 10.16492,-14.94208 0,-0.34503 -1.88874,-4.77257 -4.19721,-9.83896 -3.78918,-8.3161 -4.33739,-9.16657 -5.63908,-8.74817 -0.79301,0.25491 -7.25693,0.50447 -14.36425,0.55458 l -12.9224,0.0911 -6.88567,10.08002 -6.88566,10.08003 1.55426,2.92981 c 0.85484,1.6114 3.61676,5.67593 6.13759,9.03228 4.33891,5.77703 4.74736,6.12609 7.65919,6.54541 3.75093,0.54016 13.41225,0.0849 18.26167,-0.86056 z m -28.04996,-28.56655 6.95806,-10.11542 -2.986,-6.08235 c -2.81876,-5.74169 -6.4872,-16.7287 -6.4872,-19.42921 0,-1.30764 -2.05173,-1.60987 -15.362585,-2.26295 -5.361749,-0.26307 -5.484532,-0.23243 -7.458906,1.86122 -5.265231,5.58331 -9.987654,15.18004 -9.987654,20.29652 0,4.31931 1.987273,12.82292 4.070295,17.41692 l 1.906748,4.20525 6.068168,1.47225 c 6.117424,1.4842 12.430949,2.62802 14.953984,2.70921 1.01194,0.0325 3.17446,-2.58359 8.32509,-10.07144 z m 54.0285,5.03144 c 2.31936,-1.03111 4.04825,-2.37285 4.93374,-3.82892 2.22536,-3.65932 3.45738,-10.70029 3.45738,-19.75892 0,-8.98046 -0.79839,-11.65909 -5.19203,-17.41945 -1.64822,-2.16093 -2.11092,-2.36642 -5.31284,-2.35956 -1.92905,0.004 -4.66081,0.19818 -6.07058,0.4312 -2.47765,0.40953 -2.56335,0.51766 -2.56725,3.23922 -0.007,4.55065 -1.88864,15.73223 -3.37139,20.0291 l -1.3719,3.97568 4.21722,9.03589 c 4.76797,10.21592 4.12417,9.83597 11.27765,6.65576 z m 6.89206,-2.72279 c -0.21045,-0.21045 -0.59265,0.16891 -0.84933,0.84301 -0.37093,0.97416 -0.29243,1.05267 0.38264,0.38264 0.46713,-0.46366 0.67714,-1.0152 0.46669,-1.22565 z"
           style="fill:#dbe5ec;stroke-width:0.68352383" />
        <path
           sodipodi:nodetypes="ccsssccsccccsscsccccccscccccscccscccscccccccccccccsccccccccccsscsccscccccscccccsccc"
           inkscape:connector-curvature="0"
           id="path4605"
           d="m 95.526852,250.55482 c -5.266268,-2.29949 -9.863005,-5.16769 -13.059113,-8.14843 -2.093894,-1.95279 -3.326164,-6.7359 -3.326164,-12.91064 0,-3.1062 -0.404708,-4.81764 -1.6488,-6.97247 -2.14786,-3.72021 -4.193706,-10.52467 -5.26142,-17.49943 -0.791053,-5.16749 -1.054472,-5.76413 -3.533843,-8.0041 l -2.528735,-2.40368 0.971524,-4.57075 c 2.15691,-10.14767 10.293851,-22.35916 16.62616,-26.14673 1.403662,-0.83957 3.321078,-2.16769 4.260924,-2.95138 1.547129,-1.29005 1.530961,-1.22755 -0.170881,0.66062 -1.757261,1.94965 -1.879009,2.48373 -1.869224,8.1998 0.0057,3.36287 0.268203,6.52081 0.583215,7.01764 0.394173,0.62168 3.584423,1.11294 10.232164,1.57565 l 9.659411,0.67233 4.62402,-3.71683 c 4.78599,-3.84703 13.24332,-9.46247 15.46043,-10.26532 0.69689,-0.25235 1.12325,-0.84071 0.94744,-1.30746 -0.1758,-0.46676 -0.87939,-3.23358 -1.56354,-6.1485 -1.20521,-5.13501 -1.31973,-5.32092 -3.68154,-5.97702 -1.3407,-0.37245 -3.3604,-0.7005 -4.48821,-0.72902 -1.765,-0.0446 -1.86019,-0.13367 -0.68352,-0.6393 2.80932,-1.20721 15.31246,-0.27476 15.31246,1.07364 0,0.32675 -1.08662,0.29812 -2.49639,0.30388 -4.39716,0.018 -4.57252,0.43741 -2.8344,6.77966 l 1.54036,5.62067 5.51713,2.7699 c 6.70812,3.36786 10.78821,6.05182 14.40293,9.47455 2.63593,2.49592 2.84453,2.56714 5.80995,1.98353 1.69173,-0.33294 4.53689,-0.61874 6.3226,-0.63511 3.6696,-0.0336 3.79144,-0.30094 2.23328,-4.89938 l -1.01345,-2.99091 2.01596,2.33923 c 4.81823,5.59085 9.58411,17.49648 9.57468,23.91844 -0.01,6.68379 -1.3175,15.57145 -2.99609,20.36312 -0.89468,2.55392 -1.99599,6.62219 -2.44736,9.04059 -1.33917,7.17521 -6.70019,14.02871 -16.02438,20.48552 -4.36615,3.02347 -7.23518,3.54414 -9.76506,1.77214 -1.18243,-0.8282 -1.84287,-0.87476 -3.39882,-0.23961 -1.06217,0.4336 -6.85258,0.93235 -12.86759,1.10834 -8.60596,0.25181 -11.44616,0.57622 -13.32872,1.52244 -2.35823,1.18532 -8.53227,2.74586 -10.79914,2.72959 -0.63939,-0.005 -3.478101,-1.01943 -6.308248,-2.25521 z m 42.421678,-4.51557 c 1.32893,-0.3975 3.52718,-1.87998 4.885,-3.2944 3.16401,-3.29589 9.21276,-11.4358 10.81278,-14.55096 l 1.23782,-2.40996 -4.24754,-9.20994 -4.24754,-9.20995 -2.5234,0.0342 c -1.38788,0.0188 -7.98305,0.0995 -14.65596,0.17934 l -12.13254,0.14516 -1.47121,2.213 c -0.80917,1.21714 -3.97096,5.86158 -7.0262,10.32096 l -5.55498,8.10798 1.65768,2.8284 c 2.62249,4.47461 9.2635,13.63991 10.90187,15.04574 1.35211,1.16019 2.36273,1.24523 10.72041,0.90207 5.07516,-0.20839 10.31488,-0.70411 11.64381,-1.10162 z m -28.99126,-28.22479 c 3.71406,-5.34244 6.85806,-9.96432 6.98667,-10.27085 0.12861,-0.30653 -0.9961,-3.08681 -2.49936,-6.1784 -2.33404,-4.80016 -3.60543,-8.45125 -6.83677,-19.63331 -0.48728,-1.68626 -0.62726,-1.71673 -10.604519,-2.30898 l -10.110718,-0.60017 -2.060823,1.96721 c -5.562627,5.30997 -10.377052,15.25298 -10.269326,21.20878 0.142309,7.86772 4.069255,19.88842 7.011623,21.46313 1.956685,1.04718 15.839039,3.96158 19.155656,4.02145 2.424177,0.0437 2.612737,-0.15382 9.227567,-9.66886 z m 54.84781,4.48811 c 3.02451,-1.47362 3.90493,-2.32642 5.03189,-4.87412 2.14753,-4.85484 3.47111,-13.96811 3.06084,-21.07489 -0.39655,-6.86918 -2.023,-11.07138 -6.06848,-15.67893 l -2.17289,-2.47478 -4.83451,0.47709 c -7.11132,0.70179 -6.95123,0.5153 -7.4363,8.66199 -0.23048,3.87099 -0.85057,8.57609 -1.37797,10.45578 -2.96537,10.56871 -3.13773,8.54266 1.56202,18.36152 l 4.20834,8.79219 2.18056,-0.42986 c 1.19931,-0.23642 3.83024,-1.23362 5.8465,-2.21599 z"
           style="fill:#b3c9d7;stroke-width:0.68352383" />
        <path
           inkscape:connector-curvature="0"
           id="path4603"
           d="m 96.913194,250.9896 c -4.902945,-1.97361 -12.601986,-6.71197 -14.63232,-9.00543 -1.43907,-1.62556 -3.075071,-8.92116 -3.114176,-13.88738 -0.01599,-2.02997 -0.670176,-4.47484 -1.798408,-6.72111 -2.320446,-4.6199 -4.265385,-11.52454 -4.810003,-17.07578 -0.405722,-4.13547 -0.649685,-4.65541 -3.405201,-7.25712 l -2.968168,-2.8025 1.400197,-5.05802 c 2.707038,-9.77883 8.714022,-19.73674 14.38332,-23.84356 1.565542,-1.13407 3.03098,-2.06264 3.256528,-2.06349 0.225548,-8.2e-4 0.316381,2.07536 0.201851,4.61379 -0.114531,2.53843 0.04626,5.81308 0.35731,7.277 0.546379,2.57146 0.444633,2.78551 -3.002026,6.3158 -2.253536,2.30821 -4.650992,5.84389 -6.509024,9.59927 -2.71361,5.48463 -2.937198,6.34551 -2.886544,11.11405 0.09623,9.05929 4.114331,20.64177 7.623748,21.97605 2.48302,0.94404 13.36731,3.18962 17.953488,3.70405 3.724674,0.4178 3.780174,0.45783 6.011984,4.33581 1.23893,2.15276 4.13275,6.43975 6.4307,9.52664 l 4.17809,5.61251 h 8.66371 c 4.76504,0 10.42285,-0.35328 12.57293,-0.78508 3.42229,-0.6873 4.29328,-1.21941 6.99268,-4.27202 3.14436,-3.55579 11.19886,-15.11004 11.19886,-16.06486 0,-0.28967 1.76862,-1.02843 3.93026,-1.6417 4.64485,-1.31776 7.89294,-3.20894 9.36197,-5.45098 0.5847,-0.89235 1.66103,-3.906 2.39184,-6.69698 0.73081,-2.79099 1.34568,-4.34206 1.36639,-3.44684 0.0207,0.89523 -0.86327,4.27867 -1.96437,7.51877 -1.10111,3.24009 -2.21808,7.429 -2.48216,9.30869 -0.6377,4.53911 -2.24991,7.57531 -6.48024,12.20396 -3.99582,4.37207 -13.01497,10.69409 -15.25644,10.69409 -0.8247,0 -2.21716,-0.5027 -3.09434,-1.1171 -1.41182,-0.98888 -2.03733,-1.01288 -5.4494,-0.20911 -2.18399,0.51448 -8.03313,0.92688 -13.49612,0.95157 -6.10459,0.0276 -9.99122,0.32776 -10.59462,0.81825 -1.15246,0.93679 -6.21019,2.64508 -9.49706,3.20769 -1.72129,0.29464 -3.63855,-0.0922 -6.835236,-1.37893 z m 20.661546,-44.98543 c -2.8649,-2.08655 -8.81852,-16.28946 -10.03868,-23.94819 l -0.4384,-2.75177 6.01503,-4.54927 c 7.19314,-5.4403 13.6833,-9.42761 15.34533,-9.42761 3.52506,0 20.89535,11.0887 22.03903,14.06909 1.78468,4.6508 -2.02265,25.41471 -4.87991,26.61336 -0.65947,0.27665 -6.88938,0.64306 -13.84423,0.81422 -11.00752,0.27091 -12.84632,0.16474 -14.19817,-0.81983 z m 54.62446,-6.50065 c -0.0901,-7.12398 -0.28338,-8.24928 -2.06221,-12.00935 -1.0795,-2.28185 -2.8795,-5.20392 -3.99998,-6.49348 -1.23377,-1.41994 -2.18515,-3.42295 -2.41227,-5.07875 -0.20627,-1.50375 -0.58777,-3.34926 -0.84777,-4.10114 -0.38492,-1.11306 -0.2159,-1.05183 0.90967,0.32955 2.87365,3.52674 5.80371,9.07548 7.67237,14.52943 1.85224,5.40602 1.91138,5.96726 1.38719,13.1655 l -0.54753,7.51876 z m -51.36267,-48.15567 c -3.18357,-0.67695 -3.49765,-0.87011 -2.05057,-1.26115 3.49727,-0.94504 15.17276,0.068 11.96166,1.03788 -3.00876,0.90876 -6.33495,0.98369 -9.91109,0.22327 z"
           style="fill:#94a5af;stroke-width:0.68352383" />
        <path
           sodipodi:nodetypes="ssscccsccccsccccsccscccsccscscscccscsscssccccccccscccccc"
           inkscape:connector-curvature="0"
           id="path4601"
           d="m 93.153813,249.09153 c -3.383443,-1.67122 -7.479731,-4.20775 -9.102862,-5.63671 -2.841262,-2.50137 -2.990466,-2.83314 -4.007055,-8.90998 -0.58075,-3.47152 -0.852789,-7.12115 -0.604533,-8.11027 0.385075,-1.53427 0.722651,-1.73907 2.298246,-1.39428 10.345283,2.2638 15.225,3.15468 17.320983,3.16224 2.401818,0.009 2.665818,0.27283 7.694038,7.69863 2.86378,4.2293 5.89459,8.55487 6.73512,9.61237 l 1.52824,1.92272 -1.70352,1.32235 c -2.22248,1.7252 -7.71815,3.37687 -11.22603,3.37388 -1.90916,-10e-4 -4.709325,-0.95489 -8.932627,-3.04095 z m 50.068117,-1.44878 c -2.34523,-1.27231 -2.3697,-2.33142 -0.10271,-4.44545 2.46066,-2.29462 9.61134,-11.85219 11.20586,-14.97772 1.06529,-2.08814 1.8097,-2.67044 3.90682,-3.05601 1.42493,-0.26198 4.22537,-1.35622 6.22321,-2.43163 l 3.63245,-1.9553 -0.47463,3.88832 c -0.66217,5.42482 -3.07158,9.7884 -8.18902,14.83081 -4.34108,4.27744 -11.57667,9.24701 -13.38641,9.19409 -0.51473,-0.015 -1.78174,-0.48625 -2.81557,-1.04711 z m -22.9148,-41.07404 c -2.49456,-0.26484 -3.1628,-0.69208 -4.57062,-2.92221 -2.94725,-4.66875 -6.63651,-14.48694 -7.79876,-20.75479 l -0.60879,-3.28309 4.53233,-3.64275 c 5.22146,-4.19662 13.39407,-9.55443 15.63817,-10.25209 2.29738,-0.71422 14.32491,5.80656 19.51507,10.58018 l 4.17325,3.83832 -0.82518,7.91632 c -0.94473,9.0632 -3.01782,16.58903 -4.83799,17.56316 -1.35648,0.72596 -20.53732,1.45384 -25.21748,0.95695 z m -51.07665,-9.85776 c -3.071823,-2.32684 -3.098669,-2.59443 -0.947434,-9.44383 1.843648,-5.87006 4.582335,-11.16013 8.422011,-16.26802 2.723967,-3.62368 6.68128,-7.03882 8.156269,-7.03882 0.237579,0 0.431963,3.3231 0.431963,7.38467 v 7.38468 l -2.482106,2.35554 c -3.463263,3.28666 -7.550109,9.73771 -8.917889,14.07681 -0.634197,2.01191 -1.327604,3.64946 -1.540903,3.639 -0.213299,-0.0105 -1.618159,-0.95098 -3.121911,-2.09003 z m 102.95776,-0.87768 c -0.28196,-0.28435 -0.0942,-1.60713 -0.10244,-2.76627 -0.0196,-2.75363 -2.15617,-7.38759 -5.37811,-11.66448 -1.8433,-2.44684 -2.71461,-4.40962 -3.0398,-6.84762 l -0.45587,-3.41762 1.40471,2.05057 c 2.62018,3.82491 5.98591,10.97598 7.47795,15.88821 1.40455,4.62419 1.22497,7.89825 0.0936,6.75721 z m -50.66819,-44.54207 -3.07586,-0.79653 2.2596,-0.50688 c 2.71996,-0.61016 11.05235,0.23046 9.64455,0.97299 -1.8496,0.97555 -5.77041,1.12229 -8.82829,0.33042 z"
           style="fill:#778894;stroke-width:0.68352383" />
        <path
           sodipodi:nodetypes="ccsscccscccsccccsccccscsscccccsccccccsscscsccccssccccscccc"
           inkscape:connector-curvature="0"
           id="path4599"
           d="m 95.887908,250.41879 c -2.255628,-0.95282 -6.254242,-3.20483 -8.885809,-5.00444 -3.775401,-2.58184 -4.984172,-3.84018 -5.73047,-5.96542 -1.019255,-2.90254 -1.926557,-14.65503 -1.131379,-14.65503 0.265301,0 2.840507,0.59443 5.722679,1.32096 2.882172,0.72654 7.700999,1.67448 10.708503,2.10654 l 5.468188,0.78557 2.05057,3.46765 c 1.12782,1.90722 4.00278,6.07477 6.38881,9.26123 4.76166,6.35906 4.78003,6.02084 -0.45928,8.45268 -4.72209,2.19176 -9.31136,2.26654 -14.131812,0.23026 z m 47.865042,-2.76964 c -1.11771,-0.58281 -2.14648,-1.17395 -2.28616,-1.31362 -0.13968,-0.13968 1.83002,-2.8137 4.3771,-5.94225 2.54708,-3.12856 5.97454,-7.76449 7.61658,-10.30207 1.64204,-2.53759 3.35511,-4.6155 3.80682,-4.6176 1.93817,-0.009 5.97074,-1.50831 8.29012,-3.08229 l 2.50439,-1.69953 -0.41889,2.5637 c -1.3419,8.21267 -1.87321,9.29392 -7.43722,15.13529 -3.70355,3.88818 -12.35577,10.33345 -13.85671,10.32224 -0.31011,-0.002 -1.47832,-0.48106 -2.59603,-1.06387 z m -28.1032,-44.42757 c -3.32059,-5.66616 -7.80017,-18.65127 -7.80017,-22.61061 0,-1.1163 1.67076,-2.76988 6.32259,-6.25756 3.47743,-2.60718 8.09841,-5.73804 10.26884,-6.95748 l 3.94625,-2.21714 6.409,3.1807 c 3.52495,1.74939 8.51603,4.9561 11.09128,7.12604 l 4.68227,3.94533 -0.23509,5.42254 c -0.26013,6.00011 -1.5488,13.5287 -3.03416,17.72597 -1.23497,3.48975 -1.64372,3.57627 -17.37853,3.67851 l -12.44549,0.0809 z m -46.761032,-7.10534 -2.392333,-1.98346 1.215997,-4.66251 c 1.92108,-7.36602 6.224801,-15.34496 10.988145,-20.37161 2.310236,-2.43794 4.599737,-4.51452 5.08778,-4.61462 0.674517,-0.13835 0.922154,1.50538 1.032453,6.85308 0.142752,6.92112 0.113653,7.06507 -1.796239,8.88581 -2.909652,2.77384 -7.664956,10.26518 -9.093153,14.32504 -0.694309,1.97367 -1.574666,3.58022 -1.956348,3.57011 -0.381683,-0.0101 -1.770519,-0.91094 -3.086302,-2.00184 z m 101.250132,-9.37416 c -0.87558,-1.80222 -2.43577,-4.35885 -3.4671,-5.6814 -1.62183,-2.07983 -3.80432,-8.09486 -3.16801,-8.73117 0.46538,-0.46538 4.70768,6.85639 6.64688,11.47183 2.35513,5.60539 2.34638,7.79451 -0.0118,2.94074 z m -47.93527,-35.4732 -3.07586,-0.77162 2.55351,-0.30711 c 1.40443,-0.16891 4.01891,-0.13193 5.80995,0.0822 l 3.25644,0.38927 -2.73409,0.68946 c -1.91017,0.48168 -3.66101,0.45692 -5.80995,-0.0822 z"
           style="fill:#535e65;stroke-width:0.68352383" />
        <path
           inkscape:connector-curvature="0"
           id="path4597"
           d="m 98.242869,251.17001 c -3.981048,-1.51024 -8.265945,-3.83117 -12.398551,-6.71572 -3.758859,-2.62367 -3.92823,-2.87636 -4.955547,-7.39312 -0.58502,-2.57214 -1.063672,-6.41742 -1.063672,-8.54507 0,-3.41423 0.140452,-3.81123 1.196167,-3.38109 2.102531,0.85667 16.834401,3.7454 19.138664,3.75285 1.2218,0.004 2.22145,0.29832 2.22145,0.65416 0,0.95867 9.18794,14.52126 10.86246,16.03441 0.79254,0.71616 1.44097,1.52002 1.44097,1.78634 0,0.87077 -7.78698,3.9714 -10.93638,4.35466 -1.83548,0.22337 -4.055665,0.003 -5.505561,-0.54742 z m 45.227631,-3.86901 -2.31464,-1.41112 2.39017,-2.51658 c 3.12038,-3.28541 8.85952,-10.90946 10.76664,-14.30272 1.31364,-2.33731 2.10146,-2.87177 6.16002,-4.17891 2.55955,-0.82436 5.03029,-1.95256 5.49052,-2.50711 1.51996,-1.83144 1.83674,-1.05672 1.1948,2.92198 -0.88439,5.48133 -2.04926,7.72452 -6.53408,12.58274 -3.2732,3.54571 -12.97748,10.83403 -14.41384,10.82539 -0.23372,-0.001 -1.46653,-0.63755 -2.73959,-1.41367 z m -25.5508,-41.65919 c -2.56744,-1.59676 -8.47882,-16.02013 -9.65934,-23.56815 l -0.42762,-2.7341 5.64749,-4.22547 c 7.09223,-5.30643 13.37861,-9.10324 15.07224,-9.10324 3.19335,0 17.436,8.84247 20.85382,12.94698 1.88275,2.26103 -0.5394,21.5805 -3.25691,25.97752 -0.77662,1.25659 -26.31739,1.89576 -28.22968,0.70646 z m 23.98389,-24.25845 c 0.12077,-1.44935 -0.17554,-3.37348 -0.65846,-4.27582 -1.23725,-2.31183 -6.32174,-5.10929 -9.43468,-5.19092 -3.12159,-0.0819 -6.18926,1.39806 -6.18926,2.98582 0,1.14913 2.606,2.72831 4.5023,2.72831 1.71343,0 5.97824,2.48882 8.1103,4.73294 2.50505,2.6367 3.38805,2.40082 3.6698,-0.98033 z m -72.514441,15.01966 c -1.403051,-0.9534 -2.551003,-2.15134 -2.551003,-2.6621 0,-2.16649 3.075183,-10.6955 5.649034,-15.66757 2.672772,-5.16317 9.591089,-13.42955 11.239487,-13.42955 0.527847,0 0.861431,2.2075 1.007076,6.66436 l 0.217784,6.66436 -3.528038,3.90391 c -3.546016,3.92381 -8.433628,12.6081 -8.433628,14.98483 0,1.68211 -0.554815,1.6115 -3.600712,-0.45824 z M 170.25291,186.34857 c -0.38662,-0.84745 -1.77599,-2.94592 -3.08751,-4.66326 -2.46516,-3.22797 -4.5432,-10.02195 -2.18094,-7.13041 1.49688,1.83227 6.7077,12.59816 6.29662,13.00924 -0.17889,0.17889 -0.64157,-0.36812 -1.02817,-1.21557 z m -48.3911,-35.37524 c -1.497,-0.38093 -0.66665,-0.53065 3.07586,-0.55462 3.43821,-0.022 4.67624,0.16063 3.75938,0.55462 -1.64375,0.70634 -4.05934,0.70634 -6.83524,0 z"
           style="fill:#394248;stroke-width:0.68352383" />
        <path
           inkscape:connector-curvature="0"
           id="path4595"
           d="m 96.171403,250.19345 c -4.87906,-2.09981 -11.269746,-6.10071 -13.263215,-8.30347 -1.364062,-1.50727 -3.018204,-8.86013 -3.057966,-13.59302 -0.02445,-2.91027 0.02526,-2.97942 1.854567,-2.57972 10.439041,2.28089 15.248185,3.16124 17.310557,3.16882 2.290424,0.008 2.644654,0.32587 5.640214,5.05464 1.75797,2.77512 4.58532,6.83444 6.28301,9.02073 1.69768,2.18628 2.98158,4.29883 2.85311,4.69455 -0.30936,0.95286 -6.93801,3.54711 -10.38501,4.06437 -2.1172,0.31771 -3.749696,-0.0268 -7.235267,-1.5269 z m 48.384087,-2.4879 c -1.01324,-0.52567 -2.12905,-1.13303 -2.47957,-1.34966 -0.35053,-0.21663 0.28615,-1.38878 1.41483,-2.60477 3.21357,-3.46216 10.21527,-12.88569 11.36416,-15.29493 0.73879,-1.54926 1.65398,-2.29767 3.16198,-2.58576 1.16724,-0.223 3.74637,-1.16176 5.7314,-2.08615 l 3.60913,-1.68071 -0.45535,3.56661 c -0.25044,1.96165 -0.91439,4.48938 -1.47544,5.61719 -2.42052,4.86573 -9.5904,11.74395 -16.60108,15.92579 -2.18085,1.30087 -2.61518,1.35095 -4.27006,0.49239 z M 69.711203,196.43782 c -1.239355,-0.85523 -2.410039,-1.71164 -2.601521,-1.90312 -0.58646,-0.58646 1.770048,-8.71185 3.869343,-13.34175 2.510212,-5.53615 7.492248,-12.55069 10.594801,-14.91713 1.314293,-1.00246 2.515593,-1.69668 2.669554,-1.54272 0.153962,0.15396 0.336177,3.19581 0.404923,6.75967 l 0.124991,6.47975 -2.476492,2.61442 c -3.660927,3.86482 -6.497872,8.24147 -8.419578,12.98916 -0.939151,2.32024 -1.753696,4.26317 -1.810099,4.31765 -0.0564,0.0545 -1.116567,-0.6007 -2.355922,-1.45593 z m 100.168807,-10.8755 c -0.60432,-1.26727 -1.99712,-3.33961 -3.09511,-4.6052 -1.12853,-1.30079 -2.17997,-3.46982 -2.41874,-4.98966 l -0.42238,-2.68858 1.72244,2.53479 c 1.84749,2.71882 5.93614,11.42919 5.54736,11.81797 -0.12915,0.12914 -0.72925,-0.80205 -1.33357,-2.06932 z m -47.67643,-34.58899 c -1.23583,-0.39579 -0.47906,-0.55282 2.73409,-0.56735 3.06775,-0.0139 4.01978,0.16173 3.07586,0.56735 -1.67709,0.72067 -3.55966,0.72067 -5.80995,0 z"
           style="fill:#262e33;stroke-width:0.68352383" />
        <path
           inkscape:connector-curvature="0"
           id="path4593"
           d="m 98.742388,251.02576 c -4.012037,-1.389 -11.502837,-5.54247 -14.349476,-7.95644 -2.462461,-2.08819 -2.671471,-2.5793 -3.716769,-8.73328 -1.609756,-9.47712 -1.27337,-9.70669 5.11964,-3.49398 2.959958,2.87649 7.671921,6.76219 10.471029,8.63489 4.883868,3.26748 16.103758,8.11687 17.205028,7.43625 0.2912,-0.17997 0.52945,-0.0289 0.52945,0.33567 0,1.00912 -5.3825,3.35616 -9.26976,4.04208 -2.45723,0.43359 -4.19274,0.35675 -5.989142,-0.26519 z m 44.821302,-3.82629 c -2.20761,-1.0647 -1.92765,-1.6635 1.48316,-3.17226 6.98966,-3.09186 16.92963,-11.26255 20.17263,-16.58198 1.16957,-1.91842 1.40847,-2.06324 1.41059,-0.85511 0.005,2.8493 -2.04472,6.26404 -6.84616,11.40538 -4.61103,4.93744 -11.70367,10.09292 -13.74641,9.99195 -0.51473,-0.0254 -1.62794,-0.38004 -2.47381,-0.78798 z m 12.6338,-20.43982 c 0.46366,-0.46713 1.0152,-0.67715 1.22565,-0.4667 0.21045,0.21045 -0.16891,0.59265 -0.84301,0.84934 -0.97416,0.37093 -1.05267,0.29242 -0.38264,-0.38264 z M 69.465629,196.13094 c -2.879203,-2.02073 -2.884518,-2.65645 -0.0879,-10.51469 2.928802,-8.22968 9.595581,-18.00069 13.785378,-20.20422 l 1.788423,-0.94058 -1.806395,1.96587 c -5.99587,6.52519 -10.164271,16.30297 -10.764717,25.25071 l -0.41584,6.19676 z m 97.763331,-14.91169 c -0.85022,-1.0841 -0.82604,-1.10828 0.25807,-0.25806 1.13858,0.89293 1.50066,1.45423 0.93809,1.45423 -0.14193,0 -0.68021,-0.53827 -1.19616,-1.19617 z m -2.53899,-4.27202 c 0,-0.93985 0.15515,-1.32433 0.34477,-0.8544 0.18961,0.46992 0.18961,1.23888 0,1.7088 -0.18962,0.46993 -0.34477,0.0855 -0.34477,-0.8544 z m -39.88046,-25.75731 c 0.49342,-0.19745 1.08296,-0.17316 1.31009,0.054 0.22713,0.22713 -0.17658,0.38868 -0.89713,0.359 -0.79626,-0.0328 -0.95823,-0.19477 -0.41296,-0.41297 z"
           style="fill:#1c2226;stroke-width:0.68352383" />
      </g>
    </g>
  </g>
</svg>
